<svg version="1.1" id="Layer_1" xmlns="http://www.w3.org/2000/svg" xmlns:xlink="http://www.w3.org/1999/xlink" x="0px" y="0px" viewBox="0 0 44.6 44.3" style="enable-background:new 0 0 44.6 44.3;" xml:space="preserve">
 <style type="text/css">
  .st0{fill:#00C3F7;}
 </style>
 <g>
  <g>
   <path class="st0" d="M39.9,0H2.3C1.1,0,0,1.1,0,2.4v4.2C0,7.9,1.1,9,2.3,9h37.6c1.3,0,2.3-1.1,2.4-2.4V2.4C42.3,1.1,41.2,0,39.9,0
			L39.9,0z M39.9,23.6H2.3c-0.6,0-1.2,0.3-1.7,0.7C0.2,24.7,0,25.3,0,26v4.2c0,1.3,1.1,2.4,2.3,2.4h37.6c1.3,0,2.3-1,2.4-2.4V26
			C42.3,24.6,41.2,23.6,39.9,23.6L39.9,23.6z M23.5,35.4H2.3c-0.6,0-1.2,0.2-1.6,0.7c-0.4,0.4-0.7,1-0.7,1.7V42
			c0,1.3,1.1,2.4,2.3,2.4h21.1c1.3,0,2.3-1.1,2.3-2.4v-4.3C25.8,36.4,24.8,35.4,23.5,35.4L23.5,35.4z M42.3,11.8h-40
			c-0.6,0-1.2,0.2-1.6,0.7c-0.4,0.4-0.7,1-0.7,1.7v4.2c0,1.3,1.1,2.4,2.3,2.4h39.9c1.3,0,2.3-1.1,2.3-2.4v-4.2
			C44.6,12.9,43.6,11.8,42.3,11.8L42.3,11.8z M42.3,11.8">
   </path>
  </g>
 </g>
</svg>